# xmcd
#
# Track frame offsets:
#	150
#	39749
#	102944
#	113860
#	136868
#	171126
#	202435
#
# Disc length: 3124 seconds
#
# Revision: 1
# Processed by: cddbd v1.5.2PL0 Copyright (c) Steve Scherf et al.
# Submitted via: audiograbber 1.83.01
#
DISCID=640c3207
DTITLE=Grateful Dead - 78-11-20 Cleveland Music Hall, Cleveland OH
DYEAR=1900
DGENRE=
TTITLE0=Mississippi Half-Step
TTITLE1=Franklin's Tower
TTITLE2=Mama Tried
TTITLE3=Mexicali Blues
TTITLE4=It Must Have Been The Roses
TTITLE5=Looks Like Rain
TTITLE6=Stagger Lee
EXTD=
EXTT0=
EXTT1=
EXTT2=
EXTT3=
EXTT4=
EXTT5=
EXTT6=
PLAYORDER=
